<?xml version="1.0" encoding="UTF-8"?>
<svg xmlns="http://www.w3.org/2000/svg" xmlns:xlink="http://www.w3.org/1999/xlink" width="96pt" height="96pt" viewBox="0 0 96 96" version="1.1">
<g id="surface7509842">
<path style=" stroke:none;fill-rule:nonzero;fill:rgb(0%,0%,0%);fill-opacity:0.12549;" d="M 19.960938 15.960938 C 18.332031 15.960938 16.867188 16.949219 16.253906 18.457031 C 15.644531 19.964844 16.003906 21.691406 17.171875 22.828125 L 42.34375 48 L 17.171875 73.171875 C 16.125 74.175781 15.707031 75.664062 16.070312 77.066406 C 16.4375 78.46875 17.53125 79.5625 18.933594 79.929688 C 20.335938 80.292969 21.824219 79.875 22.828125 78.828125 L 48 53.65625 L 73.171875 78.828125 C 74.175781 79.875 75.664062 80.292969 77.066406 79.929688 C 78.46875 79.5625 79.5625 78.46875 79.929688 77.066406 C 80.292969 75.664062 79.875 74.175781 78.828125 73.171875 L 53.65625 48 L 78.828125 22.828125 C 80.011719 21.679688 80.367188 19.917969 79.722656 18.402344 C 79.082031 16.882812 77.570312 15.914062 75.921875 15.960938 C 74.882812 15.992188 73.894531 16.425781 73.171875 17.171875 L 48 42.34375 L 22.828125 17.171875 C 22.074219 16.398438 21.039062 15.960938 19.960938 15.960938 Z M 19.960938 15.960938 "/>
</g>
</svg>
