<?xml version="1.0" encoding="UTF-8"?>
<svg xmlns="http://www.w3.org/2000/svg" xmlns:xlink="http://www.w3.org/1999/xlink" width="250pt" height="250pt" viewBox="0 0 250 250" version="1.1">
<g id="surface236886">
<path style=" stroke:none;fill-rule:nonzero;fill:rgb(83.529412%,66.27451%,32.156863%);fill-opacity:1;" d="M 125 250 C 55.964844 250 0 194.035156 0 125 C 0 55.964844 55.964844 0 125 0 C 194.035156 0 250 55.964844 250 125 C 250 194.035156 194.035156 250 125 250 Z M 125 250 "/>
<path style=" stroke:none;fill-rule:nonzero;fill:rgb(26.666667%,27.843137%,28.235294%);fill-opacity:1;" d="M 191.023438 62.203125 C 188.433594 62.296875 186.058594 63.667969 184.6875 65.859375 L 111.296875 178.136719 L 63.753906 137.054688 C 61.710938 134.9375 58.648438 134.144531 55.828125 135.027344 C 53.027344 135.898438 50.9375 138.273438 50.449219 141.167969 C 49.960938 144.078125 51.136719 147.003906 53.511719 148.757812 L 107.882812 195.816406 C 109.589844 197.261719 111.847656 197.902344 114.054688 197.582031 C 116.28125 197.246094 118.246094 195.980469 119.464844 194.109375 L 197.851562 74.394531 C 199.527344 71.941406 199.664062 68.769531 198.21875 66.179688 C 196.769531 63.605469 193.980469 62.066406 191.023438 62.203125 Z M 191.023438 62.203125 "/>
</g>
</svg>
